<?xml version="1.0" standalone="no"?>
<!DOCTYPE svg PUBLIC "-//W3C//DTD SVG 20010904//EN"
 "http://www.w3.org/TR/2001/REC-SVG-20010904/DTD/svg10.dtd">
<svg version="1.0" xmlns="http://www.w3.org/2000/svg"
 width="880.000000pt" height="880.000000pt" viewBox="0 0 880.000000 880.000000"
 preserveAspectRatio="xMidYMid meet">
<metadata>
Created by potrace 1.14, written by Peter Selinger 2001-2017
</metadata>
<g transform="translate(0.000000,880.000000) scale(0.100000,-0.100000)"
fill="#000000" stroke="none">
<path d="M1545 8310 c-33 -9 -73 -22 -90 -29 -82 -34 -105 -46 -105 -53 0 -4
-4 -8 -10 -8 -27 0 -154 -130 -198 -203 -117 -194 -125 -433 -20 -640 34 -68
31 -64 95 -135 197 -220 502 -278 768 -148 131 65 245 179 299 301 9 22 21 49
26 60 10 21 21 69 22 95 0 8 4 20 8 25 9 13 6 177 -4 235 -5 25 -15 57 -22 73
-8 15 -12 27 -9 27 8 0 -56 121 -72 138 -7 7 -13 16 -13 20 0 8 -75 88 -111
117 -36 31 -128 85 -142 85 -7 0 -17 4 -23 10 -5 5 -45 18 -88 29 -93 23 -224
24 -311 1z"/>
<path d="M3627 8324 c-2 -2 -21 -5 -42 -8 -22 -2 -40 -5 -40 -6 0 -1 -13 -4
-28 -6 -49 -8 -131 -43 -195 -82 -142 -86 -242 -219 -287 -382 -18 -68 -25
-226 -12 -290 43 -205 178 -378 367 -467 36 -17 79 -34 95 -38 17 -4 39 -9 50
-12 50 -12 200 -13 1660 -13 853 0 1559 0 1570 0 158 -3 216 4 320 35 98 30
189 83 258 151 53 51 127 153 127 173 0 6 3 11 8 11 10 0 51 133 58 190 12 96
4 210 -20 277 -8 23 -12 44 -9 47 4 3 1 6 -5 6 -7 0 -12 5 -12 11 0 49 -103
188 -195 261 -83 68 -164 105 -290 134 -27 6 -3372 14 -3378 8z"/>
<path d="M707 6143 c-1 0 -36 -2 -77 -4 -41 -1 -79 -5 -85 -8 -5 -3 -12 -6
-15 -6 -42 -7 -120 -30 -120 -37 0 -4 -7 -8 -16 -8 -49 0 -220 -136 -277 -220
-41 -62 -85 -163 -100 -232 -24 -107 -13 -269 23 -363 17 -44 56 -120 68 -133
6 -7 12 -17 12 -21 0 -16 118 -130 170 -164 82 -54 178 -92 265 -104 62 -8
4405 -7 4450 2 22 4 45 8 50 9 225 45 412 209 485 426 56 168 41 357 -43 514
-39 75 -55 95 -135 173 -61 59 -176 126 -252 148 -25 7 -72 16 -105 21 -34 5
-4293 12 -4298 7z"/>
<path d="M6808 6145 c-2 -2 -19 -6 -38 -9 -19 -3 -54 -12 -77 -20 -24 -8 -43
-13 -43 -11 0 7 -140 -75 -159 -93 -85 -79 -121 -117 -126 -133 -4 -11 -10
-19 -14 -19 -5 0 -14 -15 -21 -32 -8 -18 -18 -40 -25 -48 -22 -29 -52 -136
-60 -211 -1 -15 -5 -32 -9 -38 -4 -6 -4 -11 1 -11 4 0 8 -24 7 -52 -4 -191
110 -399 284 -516 52 -36 152 -86 152 -77 0 2 15 -2 33 -10 26 -11 130 -28
172 -28 17 0 119 12 144 17 114 24 250 102 337 194 67 71 139 205 159 297 15
64 14 230 0 294 -14 59 -52 160 -64 171 -4 3 -13 18 -21 35 -21 42 -125 150
-177 185 -74 50 -182 97 -248 107 -31 5 -203 11 -207 8z"/>
<path d="M1565 3950 c-39 -9 -80 -22 -92 -29 -13 -6 -23 -9 -23 -7 0 3 -17 -4
-37 -16 -21 -12 -51 -28 -68 -37 -16 -8 -64 -49 -106 -91 -59 -59 -86 -96
-118 -161 -23 -46 -44 -95 -47 -109 -22 -95 -25 -123 -25 -185 1 -73 3 -94 17
-160 10 -51 9 -45 22 -78 7 -16 12 -30 12 -33 0 -3 16 -30 35 -60 19 -30 35
-57 35 -60 0 -23 173 -174 200 -174 4 0 10 -4 12 -8 5 -12 95 -48 163 -66 60
-15 187 -21 255 -12 81 11 215 68 286 122 46 34 112 103 144 149 26 38 67 114
68 125 0 3 6 19 13 35 56 143 45 343 -28 500 -124 265 -436 419 -718 355z"/>
<path d="M5110 3963 c0 -4 -336 -8 -748 -8 -411 -1 -768 -4 -793 -8 -60 -9
-147 -35 -184 -55 -16 -9 -33 -15 -37 -14 -5 1 -8 -2 -8 -8 0 -5 -7 -10 -15
-10 -8 0 -15 -4 -15 -9 0 -5 -8 -12 -18 -15 -18 -6 -77 -60 -137 -127 -56 -61
-119 -203 -132 -294 -8 -56 -8 -172 0 -220 33 -202 171 -385 357 -473 148 -71
-63 -65 2449 -67 1778 -1 2279 2 2331 11 230 44 413 200 493 420 87 241 31
496 -146 669 -82 80 -151 122 -265 161 -107 37 -167 40 -689 40 -333 -1 -514
3 -517 9 -3 7 -5 7 -5 0 -1 -12 -691 -13 -709 -1 -7 4 -12 4 -12 -1 0 -4 -58
-8 -130 -8 -71 0 -130 4 -130 8 0 5 -5 5 -12 1 -15 -10 -88 -11 -88 -2 0 3
-12 3 -27 0 -37 -9 -546 -7 -561 2 -7 4 -12 4 -12 -1 0 -10 -213 -9 -229 1 -6
4 -11 4 -11 -1z"/>
<path d="M1697 1774 c-1 -1 -31 -4 -67 -8 -91 -8 -226 -48 -250 -75 -3 -4 -21
-15 -40 -26 -19 -10 -45 -29 -57 -41 -12 -12 -26 -24 -30 -25 -33 -15 -157
-201 -167 -251 -2 -7 -6 -20 -9 -28 -27 -70 -36 -199 -22 -300 10 -75 51 -184
93 -250 30 -48 152 -180 166 -180 3 0 26 -13 53 -30 48 -30 129 -62 194 -77
41 -10 3451 -11 3494 -1 197 44 361 172 454 355 18 36 37 95 57 178 7 28 7
174 0 212 -23 127 -92 260 -180 347 -81 80 -90 87 -177 129 -96 46 -124 54
-214 63 -41 5 -3293 12 -3298 8z"/>
<path d="M6780 1773 c-14 -2 -47 -11 -75 -20 -226 -70 -395 -250 -448 -479
-16 -71 -15 -247 2 -313 34 -129 137 -281 246 -360 49 -37 137 -83 163 -87 8
-2 21 -6 30 -10 57 -24 220 -36 302 -21 64 12 75 15 125 35 199 80 342 241
395 446 14 53 18 97 15 176 -2 58 -5 112 -7 120 -65 258 -240 439 -488 502
-51 14 -203 20 -260 11z"/>
</g>
</svg>
