<svg xmlns="http://www.w3.org/2000/svg" viewBox="0 0 500 500"><g id="freepik--background-complete--inject-93"><rect x="256.32" y="132.04" width="85.87" height="4.92" style="fill:#ebebeb"></rect><polygon points="320.74 137.02 323.76 143.64 327.32 143.64 329.9 137.02 320.74 137.02" style="fill:#ebebeb"></polygon><polygon points="271.07 137.02 274.09 143.64 277.64 143.64 280.23 137.02 271.07 137.02" style="fill:#ebebeb"></polygon><rect x="281.03" y="155.56" width="222.54" height="90.87" transform="translate(593.29 -191.31) rotate(90)" style="fill:#e0e0e0"></rect><rect x="351.85" y="94.71" width="80.9" height="212.56" style="fill:#f0f0f0"></rect><rect x="390.67" y="89.72" width="6.02" height="222.54" style="fill:#e0e0e0"></rect><rect x="70.27" y="155.56" width="222.54" height="90.87" transform="translate(382.53 19.45) rotate(90)" style="fill:#e0e0e0"></rect><rect x="141.09" y="94.71" width="80.9" height="212.56" style="fill:#f0f0f0"></rect><rect x="179.91" y="89.72" width="6.02" height="222.54" style="fill:#e0e0e0"></rect><path d="M443.92,351.8H263.17a5.87,5.87,0,0,1-5.86-5.86V82.67a5.86,5.86,0,0,1,5.86-5.86H443.92a5.86,5.86,0,0,1,5.86,5.86V345.94A5.87,5.87,0,0,1,443.92,351.8ZM263.17,77.06a5.61,5.61,0,0,0-5.61,5.61V345.94a5.61,5.61,0,0,0,5.61,5.61H443.92a5.61,5.61,0,0,0,5.61-5.61V82.67a5.61,5.61,0,0,0-5.61-5.61Z" style="fill:#e0e0e0"></path><path d="M235.49,351.8H54.75a5.87,5.87,0,0,1-5.87-5.86V82.67a5.86,5.86,0,0,1,5.87-5.86H235.49a5.86,5.86,0,0,1,5.86,5.86V345.94A5.86,5.86,0,0,1,235.49,351.8ZM54.75,77.06a5.62,5.62,0,0,0-5.62,5.61V345.94a5.62,5.62,0,0,0,5.62,5.61H235.49a5.61,5.61,0,0,0,5.61-5.61V82.67a5.61,5.61,0,0,0-5.61-5.61Z" style="fill:#e0e0e0"></path><polygon points="329.9 119.12 326.21 131.99 316.28 131.99 312.59 119.12 329.9 119.12" style="fill:#e6e6e6"></polygon><path d="M321.47,111.15s-9-4.25-9.09-11.46C312.38,99.69,321,103.07,321.47,111.15Z" style="fill:#e0e0e0"></path><path d="M321.25,116.45s9.22-3.82,9.61-11C330.86,105.42,322.14,108.4,321.25,116.45Z" style="fill:#e0e0e0"></path><path d="M319.6,103.52s8.3-5.56,7.26-12.7C326.86,90.82,318.89,95.46,319.6,103.52Z" style="fill:#e0e0e0"></path><path d="M321.24,119.74l-1-.21c2.58-12.35-5.19-28.9-5.27-29.07l.92-.44C316.23,90.71,323.9,107.05,321.24,119.74Z" style="fill:#e0e0e0"></path><polygon points="304.8 132.04 284.8 132.04 281.04 112.35 301.04 112.35 304.8 132.04" style="fill:#f0f0f0"></polygon><polygon points="301.6 129.4 286.99 129.4 286.13 124.96 284.23 114.99 298.85 114.99 299.78 119.89 301.6 129.4" style="fill:#fafafa"></polygon><circle cx="290.5" cy="118.78" r="1.49" style="fill:#e0e0e0"></circle><path d="M301.6,129.4H287l-.86-4.44a4.21,4.21,0,0,1,3.32-2c3,0,5.62,2.13,7.21-.72a6.43,6.43,0,0,1,3.12-2.31Z" style="fill:#e0e0e0"></path><polygon points="281.04 112.35 275.74 132 279.7 132 284.8 132 281.04 112.35" style="fill:#e0e0e0"></polygon><circle cx="94.27" cy="118.97" r="20.18" transform="translate(-38.89 46.11) rotate(-22.92)" style="fill:#e0e0e0"></circle><circle cx="94.27" cy="118.97" r="18.59" transform="translate(-38.35 45.13) rotate(-22.5)" style="fill:#fafafa"></circle><rect x="93.63" y="102.07" width="0.7" height="3.88" style="fill:#e0e0e0"></rect><rect x="93.63" y="131.9" width="0.7" height="3.88" style="fill:#e0e0e0"></rect><rect x="77.12" y="118.58" width="3.88" height="0.7" style="fill:#e0e0e0"></rect><rect x="106.95" y="118.58" width="3.88" height="0.7" style="fill:#e0e0e0"></rect><rect x="102.58" y="108.03" width="3.88" height="0.7" transform="translate(-46.02 105.67) rotate(-45.01)" style="fill:#e0e0e0"></rect><rect x="81.49" y="129.12" width="3.88" height="0.7" transform="translate(-67.12 96.95) rotate(-45.01)" style="fill:#e0e0e0"></rect><rect x="83.08" y="106.44" width="0.7" height="3.88" transform="translate(-52.2 90.75) rotate(-45.01)" style="fill:#e0e0e0"></rect><rect x="104.17" y="127.53" width="0.7" height="3.88" transform="translate(-60.93 111.81) rotate(-44.99)" style="fill:#e0e0e0"></rect><rect x="96.72" y="116.5" width="0.6" height="7.06" transform="translate(-50.21 166.34) rotate(-68.51)" style="fill:#e0e0e0"></rect><polygon points="94.27 119.22 83.43 119.22 83.43 118.63 93.68 118.63 93.68 110.21 94.27 110.21 94.27 119.22" style="fill:#e0e0e0"></polygon><rect y="412.87" width="500" height="0.25" style="fill:#e0e0e0"></rect></g><g id="freepik--Shadow--inject-93"><ellipse cx="254.71" cy="447.54" rx="215.08" ry="6.17" style="fill:#f5f5f5"></ellipse></g><g id="freepik--character-1--inject-93"><path d="M70.39,243.09a17.6,17.6,0,0,0-8.31,17.07c2.22,17.8,7.84,60.54,11.47,67,4.59,8.18,67.87,3.28,71.16-4.17s-5.45-80-11-85.92C129.16,232.12,90.23,230.66,70.39,243.09Z"></path><g style="opacity:0.6000000000000001"><path d="M70.39,243.09a17.6,17.6,0,0,0-8.31,17.07c2.22,17.8,7.84,60.54,11.47,67,4.59,8.18,67.87,3.28,71.16-4.17s-5.45-80-11-85.92C129.16,232.12,90.23,230.66,70.39,243.09Z" style="fill:#fff"></path></g><g style="opacity:0.5"><path d="M77.82,328.81c-.08-.49-8.52-49.15-9.45-66.9-1-18.07,8.16-22.18,8.54-22.34l.4.92c-.09,0-8.86,4-7.94,21.37.93,17.69,9.35,66.29,9.44,66.78Z" style="fill:#fff"></path></g><rect x="109.47" y="354.38" width="5.6" height="79.54"></rect><g style="opacity:0.5"><rect x="109.47" y="354.38" width="5.6" height="79.54" style="fill:#fff"></rect></g><path d="M72.93,435.13H68.45v-2.27a15,15,0,0,1,15-15h23.63v4.48H83.46a10.55,10.55,0,0,0-10.53,10.54Z"></path><g style="opacity:0.6000000000000001"><path d="M72.93,435.13H68.45v-2.27a15,15,0,0,1,15-15h23.63v4.48H83.46a10.55,10.55,0,0,0-10.53,10.54Z" style="fill:#fff"></path></g><circle cx="70.69" cy="439.54" r="7.64" transform="translate(-373.33 407.35) rotate(-76.72)"></circle><g style="opacity:0.4"><circle cx="70.69" cy="439.54" r="7.64" transform="translate(-373.33 407.35) rotate(-76.72)" style="fill:#fff"></circle></g><g style="opacity:0.5"><circle cx="70.69" cy="439.54" r="3.85" style="fill:#fff"></circle></g><circle cx="112.27" cy="439.54" r="7.64" transform="translate(-277.92 208.13) rotate(-45)"></circle><g style="opacity:0.4"><circle cx="112.27" cy="439.54" r="7.64" transform="translate(-277.92 208.13) rotate(-45)" style="fill:#fff"></circle></g><g style="opacity:0.5"><circle cx="112.27" cy="439.54" r="3.85" style="fill:#fff"></circle></g><path d="M155.51,435.13H151v-2.27a10.55,10.55,0,0,0-10.53-10.54H116.87v-4.48H140.5a15,15,0,0,1,15,15Z"></path><g style="opacity:0.6000000000000001"><path d="M155.51,435.13H151v-2.27a10.55,10.55,0,0,0-10.53-10.54H116.87v-4.48H140.5a15,15,0,0,1,15,15Z" style="fill:#fff"></path></g><circle cx="153.27" cy="439.54" r="7.64" transform="translate(-270.31 246.49) rotate(-46.27)"></circle><g style="opacity:0.4"><circle cx="153.27" cy="439.54" r="7.64" transform="translate(-270.31 246.49) rotate(-46.27)" style="fill:#fff"></circle></g><g style="opacity:0.5"><path d="M149.42,439.54a3.85,3.85,0,1,0,3.85-3.85A3.85,3.85,0,0,0,149.42,439.54Z" style="fill:#fff"></path></g><rect x="107.09" y="413.05" width="10.36" height="15.19"></rect><g style="opacity:0.6000000000000001"><rect x="107.09" y="413.05" width="10.36" height="15.19" style="fill:#fff"></rect></g><rect x="107.09" y="353.53" width="10.36" height="15.19"></rect><g style="opacity:0.6000000000000001"><rect x="107.09" y="353.53" width="10.36" height="15.19" style="fill:#fff"></rect></g><path d="M148.33,327.47s3.79.6,13.32,2.21c3.18.54,6.29,1.05,9,1.48a11.24,11.24,0,0,1,9.47,11.11h0a11.25,11.25,0,0,1-11.25,11.26H91.66a17.34,17.34,0,0,1-16.82-12.69,44.52,44.52,0,0,1-1.23-13.37Z"></path><g style="opacity:0.5"><path d="M148.33,327.47s3.79.6,13.32,2.21c3.18.54,6.29,1.05,9,1.48a11.24,11.24,0,0,1,9.47,11.11h0a11.25,11.25,0,0,1-11.25,11.26H91.66a17.34,17.34,0,0,1-16.82-12.69,44.52,44.52,0,0,1-1.23-13.37Z" style="fill:#fff"></path></g><path d="M132.47,240.93C136.42,246.81,140.24,253,144,259c1.92,3,3.74,6,5.69,8.88.94,1.45,1.9,2.86,2.85,4.21s1.91,2.64,2.76,3.68l1,1.16s.06.09,0,.07-.19-.07-.19-.05a.35.35,0,0,1,.06.09l.29.16a13.65,13.65,0,0,0,1.83.77l2.29.77c3.2,1,6.69,1.84,10.16,2.74,7,1.73,14.15,3.39,21.26,5.31l-.5,6.72a182.5,182.5,0,0,1-22.43.9c-3.79,0-7.55-.26-11.52-.69-1-.11-2-.24-3.07-.43a30.09,30.09,0,0,1-3.44-.77l-1-.31c-.4-.14-.79-.3-1.18-.47a14.15,14.15,0,0,1-1.4-.72c-.43-.25-.77-.47-1.11-.7a31.72,31.72,0,0,1-3.13-2.48,63.75,63.75,0,0,1-4.5-4.54c-1.36-1.5-2.62-3-3.85-4.5-2.39-3-4.72-6-6.87-9.12a178.28,178.28,0,0,1-11.88-19.08Z" style="fill:#000061"></path><path d="M133.72,247.85l-4.45-.74s-2.22,10.62-4,18.65c.89,1.31,1.78,2.62,2.7,3.93,2.15,3.1,4.48,6.09,6.87,9.12,1.23,1.5,2.49,3,3.85,4.5a63.75,63.75,0,0,0,4.5,4.54,31.72,31.72,0,0,0,3.13,2.48c.34.23.68.45,1.11.7a14.15,14.15,0,0,0,1.4.72c.39.17.78.33,1.18.47l1,.31a30.09,30.09,0,0,0,3.44.77c1.05.19,2.07.32,3.07.43,3.91.42,7.62.64,11.34.69h2.58c-3.65-.15-14.81-1.17-23-8.09C138.45,278,133.72,247.85,133.72,247.85Z" style="opacity:0.2"></path><path d="M105.56,232.11s-20,2-22.78,12.39c-1.91,7.29-1.34,50,12.51,75.82,3.92,7.3,55.08-5.26,53.08-10.12-5.61-13.63-18.78-46.15-14.65-62.35,2.9-11.35-18.65-15.32-18.65-15.32Z" style="fill:#000061"></path><path d="M100.18,257.47s-2.13,10.2,1.63,15.74,12.12,7.91,17,8.56-22.63.65-22.63.65l-4.25-19.61Z" style="opacity:0.2"></path><g style="opacity:0.2"><path d="M97.92,317.8c-4-5.34-10.27-35.58-10.54-36.87l.49-.1c.06.31,6.53,31.42,10.46,36.67Z" style="fill:#fff"></path></g><g style="opacity:0.2"><path d="M85.47,290.82s3.53,11.13,17.39,12,40.1-6.52,40.1-6.52l-.66-2Z"></path></g><path d="M109.9,249l3,45.87,8.36,7.19,4.28-10.37s-9.72-27.91-12.24-44.56Z" style="fill:#263238"></path><path d="M124.19,195.28s3.5,2.6.5,8.31l-4.1-8.45Z" style="fill:#263238"></path><path d="M98.55,206.21s-4.41-3.93-4-5.6c.45-2,2.72-1.41,2.72-1.41s-1.16-7.79.69-9.53c1.52-1.44,3.81,1,3.81,1s5.07-7.52,8.22-7.39,1.49,2.75,1.49,2.75,8-5.81,10.77-4.7,1.16,4.12,1.16,4.12,5.9-5.21,7.53-2-5.41,8.2-5.41,8.2,4,.88,2.24,3.49a3.43,3.43,0,0,1-4.33,1.39Z" style="fill:#263238"></path><path d="M115.5,235.08c-.88,1.17-2.64,2.57-6.14,3-4.41.59-7.09-2.23-8.47-3.72a61.57,61.57,0,0,0,.2-20.65l14.1,11.75C114.22,228.88,113.72,232.4,115.5,235.08Z" style="fill:#ff8b7b"></path><g style="opacity:0.2"><path d="M106.84,218.55l8.35,6.95a20.72,20.72,0,0,0-.8,3.86c-3.19-.51-7.14-3.11-8.34-6.42-.75-2.06,0-4.17.79-4.39"></path></g><path d="M98.75,203.13a12.89,12.89,0,0,1,17.73-12.9C125.72,194,127,208,125,216.44c-2.23,9.41-13.86,13.76-21,6.49-4.78-4.82-4.65-10.37-5.25-19.8" style="fill:#ff8b7b"></path><path d="M115.3,208.6a.37.37,0,0,1-.35-.25,1.7,1.7,0,0,0-1.1-1.19,1.86,1.86,0,0,0-1.33.22.37.37,0,0,1-.43.13.38.38,0,0,1-.23-.48c.13-.36,1-.66,1.6-.66a2.23,2.23,0,0,1,2.2,1.73.38.38,0,0,1-.23.48Z" style="fill:#263238"></path><path d="M121.17,208.75h-.09a.37.37,0,0,1-.27-.45c.34-1.39,1.21-1.66,1.7-1.69s1.45.27,1.59.61a.38.38,0,0,1-.21.49.39.39,0,0,1-.44-.12,1.46,1.46,0,0,0-1.12-.19,1.35,1.35,0,0,0-.8,1.08A.36.36,0,0,1,121.17,208.75Z" style="fill:#263238"></path><path d="M121.67,216.31a4.54,4.54,0,0,1-3.31,2.8,3.79,3.79,0,0,1-1.08.06,4.11,4.11,0,0,1-3.61-2.16,6.29,6.29,0,0,1-.71-2.19.43.43,0,0,1,.58-.45s0,0,.06,0a20.81,20.81,0,0,0,7.66,1.32.44.44,0,0,1,.29.11A.41.41,0,0,1,121.67,216.31Z" style="fill:#263238"></path><path d="M118.36,219.11a3.79,3.79,0,0,1-1.08.06,4.11,4.11,0,0,1-3.61-2.16,7.22,7.22,0,0,1,3.37.32A1.82,1.82,0,0,1,118.36,219.11Z" style="fill:#ff5652"></path><path d="M121.55,215.83a1.51,1.51,0,0,1-.29.42c-.76.78-6.86-.49-7.3-.84a1.41,1.41,0,0,1-.36-1,20.81,20.81,0,0,0,7.66,1.32A.44.44,0,0,1,121.55,215.83Z" style="fill:#fff"></path><path d="M98.59,205.2c0,.44,2.07,4.08,4.63,3.34s1-7.71,1-7.71,5,.48,3.52-3.72a6.08,6.08,0,0,0,7.65-1s5.92,3.65,8.79,1.45c0,0,.34-8.37-9.14-10.53C109.7,185.86,97.83,190,98.59,205.2Z" style="fill:#263238"></path><path d="M94.72,211A9,9,0,0,0,99,216.34c2.78,1.48,4.85-.84,4.64-3.81-.18-2.68-1.85-6.68-4.91-6.94s-4.84,2.62-4,5.42" style="fill:#ff8b7b"></path><path d="M124.3,204.23A.39.39,0,0,1,124,204a1.94,1.94,0,0,0-1.17-1,2.24,2.24,0,0,0-1.52.23.37.37,0,0,1-.38-.64,2.9,2.9,0,0,1,2.1-.32,2.7,2.7,0,0,1,1.62,1.36.37.37,0,0,1-.14.51A.31.31,0,0,1,124.3,204.23Z" style="fill:#263238"></path><path d="M111.21,204.53a.47.47,0,0,1-.16,0,.37.37,0,0,1-.17-.5,2.92,2.92,0,0,1,1.58-1.42,2.67,2.67,0,0,1,2.11.25.38.38,0,0,1-.34.67,2,2,0,0,0-1.53-.21,2.25,2.25,0,0,0-1.15,1A.39.39,0,0,1,111.21,204.53Z" style="fill:#263238"></path><path d="M113.76,210.92h-.05a3.57,3.57,0,0,1,.05-7.14h0a3.55,3.55,0,0,1,2.51,1.08,3.57,3.57,0,0,1-2.56,6.06Zm0-6.64a3.07,3.07,0,0,0,0,6.14h0a3.07,3.07,0,0,0,3.07-3h0a3.07,3.07,0,0,0-3-3.11Z" style="fill:#fff"></path><path d="M122.94,210.43h0a3.52,3.52,0,0,1-2.51-1.08,3.56,3.56,0,0,1,2.56-6h0a3.52,3.52,0,0,1,2.51,1.08,3.56,3.56,0,0,1,1,2.53h0a3.57,3.57,0,0,1-1.08,2.51A3.53,3.53,0,0,1,122.94,210.43Zm0-6.63a3.07,3.07,0,1,0,2.14,5.26,3,3,0,0,0,.93-2.15,3.06,3.06,0,0,0-3-3.11Z" style="fill:#fff"></path><path d="M118.31,206.48a22.12,22.12,0,0,0,3.66,4.37c1.93,1.61-3,2.74-3,2.74Z" style="fill:#ff5652"></path><path d="M119.62,207.07a.2.2,0,0,1-.13,0,2,2,0,0,0-2.3-.05.25.25,0,0,1-.32-.39,2.51,2.51,0,0,1,2.89,0,.24.24,0,0,1,.07.34A.25.25,0,0,1,119.62,207.07Z" style="fill:#fff"></path><path d="M110.45,206.94a.27.27,0,0,1-.16-.06,6.32,6.32,0,0,0-7.71-.1.25.25,0,0,1-.35-.06.26.26,0,0,1,.06-.35,6.91,6.91,0,0,1,8.32.13.24.24,0,0,1,0,.35A.25.25,0,0,1,110.45,206.94Z" style="fill:#fff"></path><path d="M101.18,230.73s-5.43.21-6.91,5.18l11.91,12.88,3.18-10.66S102,235.53,101.18,230.73Z" style="fill:#000061"></path><path d="M105.82,248.65l-.12,0c-6.43-3.33-11.33-12.2-11.38-12.29a.26.26,0,0,1,.1-.34.26.26,0,0,1,.34.1c0,.09,4.88,8.83,11.17,12.09a.25.25,0,0,1-.11.47Z" style="fill:#fff"></path><path d="M116,246a.25.25,0,0,1-.2-.1.25.25,0,0,1,0-.35c3-2.34,5.52-10.31,5.55-10.39a.25.25,0,0,1,.31-.17.26.26,0,0,1,.17.32c-.11.33-2.55,8.2-5.73,10.64A.25.25,0,0,1,116,246Z" style="fill:#fff"></path><path d="M114.14,231.63s-1.3,4.9-4.78,6.5l6.17,6.85s5.65-7.32,5.07-11A7.3,7.3,0,0,0,114.14,231.63Z" style="fill:#000061"></path><polygon points="109.36 238.13 106.18 248.79 112.09 253.39 115.53 244.98 109.36 238.13" style="fill:#263238"></polygon><path d="M122.25,314.63s-11.42,25.89,13.08,32.42c16.75,4.47,41.15-6.78,51.95-3.22,0,0-4.71,1.66-10.16,19.9s-16,62.49-16,62.49l13,.53s35.89-81.11,36.59-94-63.52-22.1-63.52-22.1Z" style="fill:#263238"></path><path d="M190.39,333.54c-.7,12.87-44.43,93.12-44.43,93.12l-11.79-.31h-.52l-3.86-.1S143,384.2,148.43,366c4.94-16.53,11.27-18.37,12.41-18.57-14.55,1.53-32.52,3.41-52.15,1.34-25.39-2.68-14.38-30.44-14.38-30.44l4.36-.57.55-.07,23-3S191.08,320.67,190.39,333.54Z" style="fill:#263238"></path><g style="opacity:0.2"><path d="M101.5,328.19a17.21,17.21,0,0,1-3.85-.47l.11-.49c3.94.91,7.32.45,10-1.38,5-3.33,6.15-10.14,6.16-10.21l.49.08c0,.08-1.21,7.09-6.37,10.55A11.67,11.67,0,0,1,101.5,328.19Z" style="fill:#fff"></path></g><g style="opacity:0.2"><path d="M166.25,346.4a130.38,130.38,0,0,0-15.38,26.91c-6.62,15.67-15.91,50.09-16.7,53l0,.2a.27.27,0,0,1-.25.19h-.06a.27.27,0,0,1-.18-.31l0-.08c.51-1.88,10-37.26,16.76-53.22a131.25,131.25,0,0,1,15.43-27c2.32-3.23,3.85-5.36,3.56-6.37a1,1,0,0,0-.67-.63c-1.44-.6-8,.11-16.35,1-15.49,1.68-36.7,4-47.33.61a10.2,10.2,0,0,1-6.23-5.23c-3.17-6.23-.88-15.29-.15-17.79l.55-.07c-.61,2.07-3.1,11.46,0,17.64a9.76,9.76,0,0,0,5.94,5c10.53,3.35,31.69,1.05,47.13-.63,8.73-.95,15-1.63,16.59-1a1.48,1.48,0,0,1,1,1C170.23,340.85,168.82,342.82,166.25,346.4Z" style="fill:#fff"></path></g><polygon points="131.57 426.24 129.52 436.64 137.99 436.64 142.79 427.44 131.57 426.24" style="fill:#ff8b7b"></polygon><path d="M129.49,434.52s-1.94-.3-1.84,2.12-2,8.25-1.9,10.49h26s.84-5.55-3.88-5.72c-6.32-.22-8.47-3.85-8.47-3.85-.37-2.54-2.19-1.69-4.86-1.42C132.14,436.39,129.49,434.52,129.49,434.52Z" style="fill:#000061"></path><path d="M140.79,439A2.71,2.71,0,0,0,139,440.1"></path><path d="M139,440.35a.22.22,0,0,1-.13,0,.26.26,0,0,1-.08-.35,3,3,0,0,1,2-1.19.25.25,0,0,1,.27.22.25.25,0,0,1-.22.28,2.46,2.46,0,0,0-1.63,1A.24.24,0,0,1,139,440.35Z"></path><path d="M142,439.56a2.72,2.72,0,0,0-1.82,1.08"></path><path d="M140.19,440.89a.33.33,0,0,1-.13,0,.26.26,0,0,1-.08-.35,3,3,0,0,1,2-1.19.25.25,0,0,1,.05.5,2.48,2.48,0,0,0-1.63,1A.24.24,0,0,1,140.19,440.89Z"></path><path d="M143.51,440.28a2.71,2.71,0,0,0-1.81,1.08"></path><path d="M141.7,441.61a.22.22,0,0,1-.13,0,.26.26,0,0,1-.08-.35,3,3,0,0,1,2-1.19.26.26,0,0,1,.28.22.25.25,0,0,1-.22.28,2.46,2.46,0,0,0-1.63,1A.25.25,0,0,1,141.7,441.61Z"></path><path d="M151.56,445.62H125.92a.25.25,0,1,1,0-.5h25.64a.25.25,0,1,1,0,.5Z"></path><polygon points="147.25 430.74 127.17 430.74 128.44 424.56 148.51 424.56 147.25 430.74" style="fill:#263238"></polygon><g style="opacity:0.30000000000000004"><polygon points="147.25 430.74 127.17 430.74 128.44 424.56 148.51 424.56 147.25 430.74" style="fill:#fff"></polygon></g><polygon points="162.62 426.24 161.01 436.64 169.48 436.64 173.09 427.35 162.62 426.24" style="fill:#ff8b7b"></polygon><path d="M160.9,434.52s-2-.3-1.76,2.12-1.65,8.25-1.46,10.49h26s.6-5.55-4.13-5.72c-6.32-.22-8.63-3.85-8.63-3.85-.47-2.54-2.26-1.69-4.92-1.42C163.62,436.39,160.9,434.52,160.9,434.52Z" style="fill:#000061"></path><path d="M172.39,439a2.58,2.58,0,0,0-1.77,1.08"></path><path d="M170.62,440.35a.22.22,0,0,1-.13,0,.24.24,0,0,1-.08-.34,2.82,2.82,0,0,1,2-1.2.27.27,0,0,1,.28.22.26.26,0,0,1-.22.28,2.32,2.32,0,0,0-1.58,1A.27.27,0,0,1,170.62,440.35Z"></path><path d="M173.62,439.56a2.58,2.58,0,0,0-1.77,1.08"></path><path d="M171.85,440.89a.28.28,0,0,1-.12,0,.25.25,0,0,1-.09-.34,2.84,2.84,0,0,1,2-1.2.26.26,0,0,1,.28.22.25.25,0,0,1-.22.28,2.33,2.33,0,0,0-1.58.95A.26.26,0,0,1,171.85,440.89Z"></path><path d="M175.16,440.28a2.58,2.58,0,0,0-1.77,1.08"></path><path d="M173.39,441.61a.22.22,0,0,1-.13,0,.25.25,0,0,1-.08-.34,2.84,2.84,0,0,1,1.95-1.2.26.26,0,0,1,.28.22.26.26,0,0,1-.22.28,2.32,2.32,0,0,0-1.58,1A.27.27,0,0,1,173.39,441.61Z"></path><path d="M183.42,445.62H157.78a.25.25,0,1,1,0-.5h25.64a.25.25,0,0,1,0,.5Z"></path><polygon points="176.31 430.74 158.42 430.74 159.31 424.56 177.2 424.56 176.31 430.74" style="fill:#263238"></polygon><g style="opacity:0.30000000000000004"><polygon points="176.31 430.74 158.42 430.74 159.31 424.56 177.2 424.56 176.31 430.74" style="fill:#fff"></polygon></g><path d="M102.23,252.23l-.4.94-.47,1.15c-.3.77-.61,1.56-.9,2.35-.56,1.59-1.11,3.18-1.53,4.76a38.08,38.08,0,0,0-1.53,8.86,16.32,16.32,0,0,0,.25,3.4,7.78,7.78,0,0,0,.73,2.22,5.94,5.94,0,0,0,1.34,1.58,9.2,9.2,0,0,0,2.7,1.47,22.77,22.77,0,0,0,4,1l.58.1.72.11,1.44.21,2.89.41q5.79.82,11.62,1.6c7.76,1.05,15.64,2,23.4,3.16l.19,10.4A223.67,223.67,0,0,1,123,298.37c-4.05.18-8.1.32-12.17.32h-5.34l-.9,0A37.67,37.67,0,0,1,97,297.48a29.86,29.86,0,0,1-8.12-3.41A25.34,25.34,0,0,1,85,291.15a26.07,26.07,0,0,1-3.29-3.74,27.18,27.18,0,0,1-4.06-8.62,34.36,34.36,0,0,1-1.17-8.4,51.74,51.74,0,0,1,2-14.63,68,68,0,0,1,2.16-6.56c.41-1.06.84-2.12,1.31-3.17l.74-1.58.39-.81.48-.94Z" style="fill:#000061"></path><g style="opacity:0.2"><path d="M94.6,296.82c0-.05-.14-4.65-3.22-7.46s-8.33-.92-8.39-.9l-.17-.47c.23-.08,5.62-2,8.89,1s3.39,7.62,3.39,7.82Z" style="fill:#fff"></path></g><path d="M167.1,296h-9.8l-10.16-.47L146,288.63s9.56-.83,12.39,0c0,0,7.2,3.48,8.15,4.72A3.27,3.27,0,0,1,167.1,296Z" style="fill:#ff8b7b"></path><path d="M141.67,296.2a.23.23,0,0,1-.18-.09c-1.93-2.22-2.11-9.21-2.11-9.51a.24.24,0,0,1,.24-.25h0a.25.25,0,0,1,.25.24c0,.07.18,7.11,2,9.19a.26.26,0,0,1,0,.36A.27.27,0,0,1,141.67,296.2Z" style="fill:#fff"></path><path d="M140.27,292.62a.24.24,0,0,1-.25-.24.25.25,0,0,1,.24-.26l6.29-.27a.25.25,0,0,1,.26.24.24.24,0,0,1-.23.26l-6.3.27Z" style="fill:#fff"></path><path d="M211.94,294h-10.4l-10.78-.51-1.24-7.26s10.14-.89,13.15,0c0,0,7.64,3.7,8.64,5A3.47,3.47,0,0,1,211.94,294Z" style="fill:#ff8b7b"></path></g><g id="freepik--character-2--inject-93"><path d="M217.36,236.44s-.87,76,0,96.14c.91,21,6.31,93,6.37,92.72h12.92s10.71-141.11,11.71-155.95a73.23,73.23,0,0,0-3.87-27.65Z" style="fill:#000061"></path><path d="M276,244.52s6.37,70.54,7.41,90.62S287.24,426,287.24,426l-13.74-.78s-24.77-142-27.33-156.78.5-24,.5-24Z" style="fill:#000061"></path><g style="opacity:0.2"><path d="M277.43,264.12a8,8,0,0,1-6.06-2.45c-3.85-4.06-3.31-11.65-3.29-12l.5,0c0,.08-.54,7.69,3.16,11.59a7.64,7.64,0,0,0,5.95,2.29v.5Z" style="fill:#fff"></path></g><g style="opacity:0.2"><path d="M250.56,268.69a4.16,4.16,0,0,1-1.31-.23l.16-.47a2.87,2.87,0,0,0,3.48-1.07,5.13,5.13,0,0,0,.93-3.07V249.72h.5v14.13a5.66,5.66,0,0,1-1,3.37A3.38,3.38,0,0,1,250.56,268.69Z" style="fill:#fff"></path></g><g style="opacity:0.2"><rect x="249.08" y="248.65" width="0.5" height="27.19" style="fill:#fff"></rect></g><g style="opacity:0.2"><path d="M277.73,425.73a.24.24,0,0,1-.24-.2l-26-148.36a.25.25,0,0,1,.2-.29.25.25,0,0,1,.29.21l26,148.35a.25.25,0,0,1-.21.29Z" style="fill:#fff"></path></g><polygon points="235.4 425.97 235.13 436.5 226.65 436.5 224.73 427.09 235.4 425.97" style="fill:#ce7a63"></polygon><path d="M235.62,434.36s2-.31,1.37,2.14.17,8.36-.43,10.63h-26s.41-5.62,5.16-5.79c6.37-.23,9.33-3.91,9.33-3.91.93-2.57,2.57-1.7,5.18-1.43C232.56,436.25,235.62,434.36,235.62,434.36Z" style="fill:#263238"></path><path d="M223.32,438.92a2.06,2.06,0,0,1,1.57,1.09"></path><path d="M224.89,440.25a.25.25,0,0,1-.22-.15,1.9,1.9,0,0,0-1.38-1,.23.23,0,0,1-.21-.26.25.25,0,0,1,.27-.21,2.29,2.29,0,0,1,1.76,1.24.24.24,0,0,1-.13.31Z" style="fill:#fff"></path><path d="M222,439.46a2.06,2.06,0,0,1,1.57,1.09"></path><path d="M223.56,440.79a.25.25,0,0,1-.22-.15,1.84,1.84,0,0,0-1.38-.94.24.24,0,0,1,.06-.48,2.32,2.32,0,0,1,1.76,1.24.24.24,0,0,1-.13.31A.15.15,0,0,1,223.56,440.79Z" style="fill:#fff"></path><path d="M220.32,440.19a2.09,2.09,0,0,1,1.57,1.09"></path><path d="M221.89,441.52a.23.23,0,0,1-.22-.15,1.84,1.84,0,0,0-1.38-.94.24.24,0,0,1-.21-.27.24.24,0,0,1,.27-.2,2.27,2.27,0,0,1,1.76,1.23.24.24,0,0,1-.13.31A.15.15,0,0,1,221.89,441.52Z" style="fill:#fff"></path><path d="M236.77,445.58H211.14a.24.24,0,1,1,0-.47h25.63a.24.24,0,1,1,0,.47Z" style="fill:#fff"></path><polygon points="222.13 430.52 238.78 430.52 239.01 424.27 221.99 424.27 222.13 430.52" style="fill:#263238"></polygon><polygon points="274.77 425.98 277.48 436.4 285.95 436.4 285.7 427.09 274.77 425.98" style="fill:#ce7a63"></polygon><path d="M277,434.25s-2-.3-1.37,2.15-.16,8.35.44,10.63h26s-.4-5.63-5.15-5.8c-6.37-.22-9.34-3.9-9.34-3.9-.93-2.57-2.56-1.71-5.17-1.43C280,436.14,277,434.25,277,434.25Z" style="fill:#263238"></path><path d="M289.29,438.81a2.1,2.1,0,0,0-1.58,1.09"></path><path d="M287.71,440.14a.24.24,0,0,0,.23-.15,1.83,1.83,0,0,1,1.38-.94.23.23,0,0,0,.2-.27.22.22,0,0,0-.26-.2,2.28,2.28,0,0,0-1.77,1.23.24.24,0,0,0,.13.31A.15.15,0,0,0,287.71,440.14Z" style="fill:#fff"></path><path d="M290.62,439.36a2,2,0,0,0-1.57,1.09"></path><path d="M289.05,440.69a.25.25,0,0,0,.22-.15,1.83,1.83,0,0,1,1.38-.94.24.24,0,1,0-.06-.48,2.31,2.31,0,0,0-1.77,1.24.24.24,0,0,0,.13.31Z" style="fill:#fff"></path><path d="M292.29,440.09a2.07,2.07,0,0,0-1.58,1.09"></path><path d="M290.71,441.42a.25.25,0,0,0,.23-.15,1.81,1.81,0,0,1,1.38-.94.24.24,0,0,0-.06-.48,2.3,2.3,0,0,0-1.77,1.24.24.24,0,0,0,.13.31Z" style="fill:#fff"></path><path d="M275.83,445.48h25.63a.24.24,0,1,0,0-.48H275.83a.24.24,0,1,0,0,.48Z" style="fill:#fff"></path><polygon points="289.66 430.52 272.41 430.72 271.27 424.48 289.44 424.27 289.66 430.52" style="fill:#263238"></polygon><path d="M270.24,152.23l3.43,4.28,3.5,4.33c2.33,2.88,4.7,5.71,7.08,8.46s4.78,5.42,7.22,7.76c1.2,1.17,2.39,2.29,3.52,3.19.55.45,1.09.86,1.55,1.17.25.19.41.26.62.41l.2.12.09.06.05,0s-.1,0-.14,0c-1.06-.23-1.16,0-1,0a4.44,4.44,0,0,0,1.29-.13,26.53,26.53,0,0,0,4.21-1.38,95.59,95.59,0,0,0,9.55-4.64c6.44-3.53,13-7.58,19.38-11.54l6.44,7.58a154.76,154.76,0,0,1-17.55,16.36,88.47,88.47,0,0,1-10.34,7.18,40,40,0,0,1-6.45,3.09,22.32,22.32,0,0,1-4.35,1.16,15.12,15.12,0,0,1-6.71-.34,25.53,25.53,0,0,1-4.42-1.86c-1.22-.64-2.29-1.29-3.31-2a60.8,60.8,0,0,1-5.47-4.08,112.89,112.89,0,0,1-9.14-8.62c-2.84-2.94-5.49-6-8.07-9.05-1.26-1.55-2.53-3.1-3.75-4.69l-1.82-2.4-1.8-2.51Z" style="fill:#263238"></path><path d="M330.81,164.3s4.42-3.77,6-6.37,9.89,6,10,7.23-9.55,6.72-9.55,6.72Z" style="fill:#ce7a63"></path><path d="M335.89,157.8s7.77-9.75,9.71-10.8-3.06,8.19-3.06,8.19,6.72,3.73,6.87,6.2-1.27,4.78-2.91,5.23a3,3,0,0,1-2.84-1.12Z" style="fill:#ce7a63"></path><path d="M332.4,163.81s.64-10.06,2.28-10.28,5,4.87,5,4.87Z" style="fill:#ce7a63"></path><path d="M237.18,145.86s-19,6.51-20.23,11.32,1.78,42.43,1.94,49.59-5.71,33.62-1.64,38.7c4.36,5.45,58.55,8.44,59.49,1.95,1.22-8.4-1.81-35.45-1.49-44.85s-2.61-46.69-4.68-50.31-20.88-5.56-20.88-5.56Z" style="fill:#263238"></path><g style="opacity:0.2"><path d="M219.93,246.26c-1.48-4,.84-18.72,2.55-29.48.42-2.69.79-5,1-6.85,1.26-9-2.24-29.12-2.28-29.33l.49-.08c0,.2,3.55,20.44,2.29,29.48-.26,1.84-.62,4.17-1.05,6.86-1.6,10.1-4,25.37-2.57,29.22Z" style="fill:#fff"></path></g><path d="M234.81,121s-2.48-7.45-1.52-10.48,3.1-3.43,3.1-3.43,1.21-8.06,9.18-7.58,17.23-2.39,19,1.76-4.56,6.86-4.56,6.86,2.5,3,1.55,5.42-3.16.16-3.16.16Z" style="fill:#263238"></path><path d="M252.18,149.9c-.88,1.17-1.88,3.5-5.38,4-4.41.59-9.45-4.07-10-6,1.25-6.31,2-13.59,1-19.31l5.75,4.79,8.35,6.95h0c0,.15-.09.32-.14.47s-.09.42-.14.63a14.39,14.39,0,0,0-.26,1.53c-.05.41-.08.82-.09,1.22a15.78,15.78,0,0,0,.31,3.6A13.62,13.62,0,0,0,252.18,149.9Z" style="fill:#ce7a63"></path><path d="M246.42,163.33a8.31,8.31,0,0,1-5.35-1.89c-5.23-4.25-5.89-14.09-5.91-14.51a.23.23,0,0,1,.23-.26.24.24,0,0,1,.27.23c0,.1.66,10,5.73,14.15a8,8,0,0,0,6.47,1.67,5.58,5.58,0,0,0,4.14-2.59c2.76-4.47,0-13-.05-13.14a.23.23,0,0,1,.16-.31.24.24,0,0,1,.31.16c.12.36,2.89,8.89,0,13.55a6,6,0,0,1-4.5,2.82A9.8,9.8,0,0,1,246.42,163.33Z" style="fill:#fff"></path><g style="opacity:0.2"><path d="M251.56,147.78c-3.12-.65-7-3.18-8.12-6.35-.74-2.06,0-4.16.8-4.38l7.1,5.91c-.05.41-.08.82-.09,1.22A15.78,15.78,0,0,0,251.56,147.78Z"></path></g><path d="M235.43,118a12.9,12.9,0,0,1,17.74-12.9c9.24,3.74,10.56,17.73,8.55,26.21-2.23,9.42-13.86,13.76-21,6.5-4.77-4.83-4.64-10.38-5.25-19.81" style="fill:#ce7a63"></path><g style="opacity:0.2"><path d="M243.89,112.61s1.81,3.8-.76,4.82,0,5.64,0,5.64l-5.39,2a10.29,10.29,0,0,1-2.75-6.8c0-4.09.23-6.8.23-6.8Z"></path></g><path d="M235,112.78s5.75,1.6,8.14.48-1.28-2.87.56-4.39,12.11-.86,15,.65.17-5.43-5.57-6.31S236,103.61,235,112.78Z" style="fill:#263238"></path><path d="M239.12,124.43s-5.48,5.07-.9,12.62c2.9,4.78,11,8.89,16.08,8.16,7.19-1,7.86-16.23,7.86-16.23a3.8,3.8,0,0,0-4.85-.57c-2.73,1.75-5.23-1.83-7.43-1.83s-4.31,3.36-6,2-.76-5.51-.76-5.51Z" style="fill:#263238"></path><path d="M231.4,124.25a9,9,0,0,0,4.32,5.33c2.77,1.48,4.84-.84,4.64-3.81-.19-2.68-1.85-6.68-4.91-6.94s-4.85,2.62-4,5.42" style="fill:#ce7a63"></path><path d="M249.88,122.54c0,.77.41,1.39.91,1.39s.91-.62.91-1.39-.41-1.39-.92-1.39-.9.62-.9,1.39" style="fill:#263238"></path><path d="M258.29,122.42c0,.77.41,1.39.92,1.39s.9-.63.9-1.39-.41-1.39-.91-1.39-.91.62-.91,1.39" style="fill:#263238"></path><path d="M250.52,129.5a15.1,15.1,0,0,0,7.57.86s-.49,3.32-3.54,3.38C250.87,133.83,250.52,129.5,250.52,129.5Z" style="fill:#fff"></path><path d="M261,119.05a.34.34,0,0,1-.32-.19,1.94,1.94,0,0,0-1.17-1,2.26,2.26,0,0,0-1.53.23.37.37,0,0,1-.38-.64,3,3,0,0,1,2.1-.32,2.67,2.67,0,0,1,1.63,1.37.38.38,0,0,1-.14.51A.43.43,0,0,1,261,119.05Z" style="fill:#263238"></path><path d="M247.9,119.35a.53.53,0,0,1-.17,0,.38.38,0,0,1-.17-.5,3,3,0,0,1,1.59-1.42,2.69,2.69,0,0,1,2.1.25.39.39,0,0,1,.17.51.38.38,0,0,1-.51.16,1.93,1.93,0,0,0-1.52-.21,2.29,2.29,0,0,0-1.16,1A.36.36,0,0,1,247.9,119.35Z" style="fill:#263238"></path><path d="M255,121.3a8.32,8.32,0,0,0,2.49,4c1.93,1.61-1.87,3.06-1.87,3.06Z" style="fill:#ba4d3c"></path><path d="M233.35,168.56l-16.49,16.68c-2.69,2.81-5.42,5.56-8,8.39a102.33,102.33,0,0,0-7,8.26c-.49.65-.93,1.28-1.27,1.8s-.57,1-.59.87,0-.13,0-.36v-.15a2.11,2.11,0,0,0,0-.25c0-.17,0-.35,0-.48a2.49,2.49,0,0,0-.27-.95c-.14-.18-.05.2.2.65a20,20,0,0,0,2.68,3.49c1.16,1.25,2.45,2.53,3.81,3.8,5.48,5,11.82,9.92,18,14.65l-4.82,8.7c-3.93-1.59-7.61-3.33-11.33-5.23a122.14,122.14,0,0,1-11-6.35c-1.81-1.2-3.62-2.46-5.41-3.92a36.69,36.69,0,0,1-5.47-5.34,17.63,17.63,0,0,1-2.73-4.58,13.09,13.09,0,0,1-.92-3.87,9.91,9.91,0,0,1,0-1.23l0-.63.05-.51a17.09,17.09,0,0,1,.31-1.84,24.54,24.54,0,0,1,1.7-4.69c.59-1.24,1.18-2.34,1.78-3.38a107.53,107.53,0,0,1,7.55-10.86c2.63-3.31,5.27-6.52,8-9.59s5.54-6.08,8.39-9,5.73-5.78,8.85-8.6Z" style="fill:#263238"></path><path d="M217.85,220.22s5.53,3.56,5.89,6.89-2.11,11-4.43,10.64-4.08-.74-5.15-4.09S217.85,220.22,217.85,220.22Z" style="fill:#ce7a63"></path><g style="opacity:0.2"><path d="M217.13,264.11l0-.49c9.94-.8,9.64-15.17,9.63-15.31h.5C227.23,248.44,227.54,263.28,217.13,264.11Z" style="fill:#fff"></path></g></g><g id="freepik--Table--inject-93"><path d="M236.91,296.84H176.25a2.12,2.12,0,0,1-2-2.79l13.17-40.12a2.13,2.13,0,0,1,2-1.47h60.66a2.12,2.12,0,0,1,2,2.79l-13.17,40.13A2.14,2.14,0,0,1,236.91,296.84Z" style="fill:#000061"></path><g style="opacity:0.6000000000000001"><path d="M236.91,296.84H176.25a2.12,2.12,0,0,1-2-2.79l13.17-40.12a2.13,2.13,0,0,1,2-1.47h60.66a2.12,2.12,0,0,1,2,2.79l-13.17,40.13A2.14,2.14,0,0,1,236.91,296.84Z" style="fill:#fff"></path></g><g style="opacity:0.5"><path d="M219.2,275.43a6,6,0,0,1-5.71,4.79,3.94,3.94,0,0,1-4-4.79,6,6,0,0,1,5.7-4.8A4,4,0,0,1,219.2,275.43Z" style="fill:#fff"></path></g><path d="M154.64,296l-1.28,3.86a1.81,1.81,0,0,0,1.72,2.38h80.34a1.79,1.79,0,0,0,1.72-1.24l1.67-5Z" style="fill:#000061"></path><g style="opacity:0.6000000000000001"><path d="M154.64,296l-1.28,3.86a1.81,1.81,0,0,0,1.72,2.38h80.34a1.79,1.79,0,0,0,1.72-1.24l1.67-5Z" style="fill:#fff"></path></g><path d="M238.64,296.2H174.51a.25.25,0,0,1,0-.5h64.13a.25.25,0,0,1,0,.5Z" style="fill:#000061"></path><path d="M279.1,296.84h60.66a2.12,2.12,0,0,0,2-2.79l-13.17-40.12a2.13,2.13,0,0,0-2-1.47H265.93a2.13,2.13,0,0,0-2,2.79l13.17,40.13A2.14,2.14,0,0,0,279.1,296.84Z" style="fill:#000061"></path><g style="opacity:0.6000000000000001"><path d="M279.1,296.84h60.66a2.12,2.12,0,0,0,2-2.79l-13.17-40.12a2.13,2.13,0,0,0-2-1.47H265.93a2.13,2.13,0,0,0-2,2.79l13.17,40.13A2.14,2.14,0,0,0,279.1,296.84Z" style="fill:#fff"></path></g><g style="opacity:0.4"><path d="M284.58,292.76H334.1a1.73,1.73,0,0,0,1.64-2.27L325,257.74a1.74,1.74,0,0,0-1.65-1.2H273.83a1.74,1.74,0,0,0-1.65,2.28l10.76,32.75A1.72,1.72,0,0,0,284.58,292.76Z" style="fill:#fff"></path></g><path d="M361.37,296l1.28,3.86a1.81,1.81,0,0,1-1.72,2.38H280.59a1.79,1.79,0,0,1-1.72-1.24l-1.67-5Z" style="fill:#000061"></path><g style="opacity:0.4"><path d="M361.37,296l1.28,3.86a1.81,1.81,0,0,1-1.72,2.38H280.59a1.79,1.79,0,0,1-1.72-1.24l-1.67-5Z" style="fill:#fff"></path></g><rect x="152.47" y="302.19" width="243.46" height="7.36"></rect><g style="opacity:0.8"><rect x="152.47" y="302.19" width="243.46" height="7.36" style="fill:#fff"></rect></g><polygon points="168.55 309.55 146.68 447.08 151.07 447.18 178.17 309.55 168.55 309.55"></polygon><g style="opacity:0.8"><polygon points="168.55 309.55 146.68 447.07 151.07 447.18 178.17 309.55 168.55 309.55" style="fill:#fff"></polygon></g><polygon points="375.65 309.55 397.52 447.08 393.13 447.18 366.03 309.55 375.65 309.55"></polygon><g style="opacity:0.8"><polygon points="375.65 309.55 397.52 447.07 393.13 447.18 366.03 309.55 375.65 309.55" style="fill:#fff"></polygon></g><rect x="168.83" y="317.16" width="202.06" height="2.82"></rect><g style="opacity:0.8"><rect x="168.83" y="317.16" width="202.06" height="2.82" style="fill:#fff"></rect></g></g><g id="freepik--character-3--inject-93"><path d="M396.92,314.63s11.42,25.89-13.08,32.42c-16.75,4.47-41.15-6.78-51.95-3.22,0,0,4.71,1.66,10.16,19.9s14.8,52.3,14.8,52.3l-13,.53s-34.74-70.92-35.44-83.79S372,310.67,372,310.67Z" style="fill:#263238"></path><path d="M424.86,318.29s11,27.76-14.39,30.44c-19.7,2.08-37.74.17-52.32-1.36,0,0,7.14.35,12.59,18.59s15.67,50.2,15.67,50.2l-16,0s-40.92-69.8-41.62-82.67,68.14-18.91,68.14-18.91Z" style="fill:#263238"></path><g style="opacity:0.2"><path d="M352.84,417.92c-1.11-3-27.34-73-27.34-77.42s38.94-9.63,43.38-10.2l.06.5C351.68,333,326,337.45,326,340.5c0,4.29,27,76.52,27.31,77.25Z" style="fill:#fff"></path></g><polygon points="384.9 417.83 386.94 428.23 378.47 428.23 373.67 419.03 384.9 417.83" style="fill:#b55b52"></polygon><path d="M386.94,426.49c.31,2.52-8.08.43-8.93,1.74s-2,5.69-3.29,7.9-8.69,9.31-8.69,9.31h15.75l2.38-3.43.78,3.43h4.35S387.64,428.26,386.94,426.49Z" style="fill:#263238"></path><polygon points="369.21 422.33 389.29 422.33 388.02 416.16 367.95 416.16 369.21 422.33" style="fill:#263238"></polygon><g style="opacity:0.30000000000000004"><polygon points="369.21 422.33 389.29 422.33 388.02 416.16 367.95 416.16 369.21 422.33" style="fill:#fff"></polygon></g><path d="M352.42,214.5a.46.46,0,0,1-.45-.08.47.47,0,0,1-.06-.66,4.56,4.56,0,0,1,3.88-1.7.45.45,0,0,1,.4.51.46.46,0,0,1-.51.41,3.69,3.69,0,0,0-3.06,1.38.35.35,0,0,1-.2.14" style="fill:#263238"></path><path d="M353.29,216.52a20.5,20.5,0,0,1-1.82,5.33,3.28,3.28,0,0,0,2.79,0Z" style="fill:#a02724"></path><path d="M354.51,216.75c.21.76,0,1.49-.51,1.64s-1.07-.36-1.29-1.12,0-1.49.5-1.63,1.08.35,1.3,1.11" style="fill:#263238"></path><path d="M353.44,215.62h-2s1.34,1.15,2,0" style="fill:#263238"></path><path d="M353.5,204.13s-4.35,1.11-.78,7.64l3.25-6.68Z" style="fill:#263238"></path><path d="M372.05,197.2s-3.7-14.47,8.1-13.4,9.72,11,9.72,11,7.11.25,3.89,8.4-15.9,2.95-15.9,2.95C374.84,204.2,373.07,201.05,372.05,197.2Z" style="fill:#263238"></path><path d="M377.14,240.24a12.18,12.18,0,0,0-7.18,1.24c1.47-2.78.24-5.93-1.41-8.8l8.17-12.29c.5,6,2.35,16.65,7.38,19.3C384.1,239.69,385.75,241.12,377.14,240.24Z" style="fill:#b55b52"></path><g style="opacity:0.2"><path d="M373.39,225.4l-4.84,7.27a18.78,18.78,0,0,1,1.43,3c2.31-1,4.87-4.62,4.41-7.22a8.84,8.84,0,0,0-1-3"></path></g><path d="M378.9,208.91c1.11,9.42,1.79,13.39-2,19-5.78,8.48-17.6,7.79-21.51-1.11-3.53-8-4.76-22.09,3.69-27.45a13,13,0,0,1,19.87,9.53" style="fill:#b55b52"></path><path d="M364.14,195.27s8.58-2.39,14.53,3,7.52,19.54-1.41,29c.28,2.87-12.13,4.31-16-3.73-1.4-2.92-3.39-4.81-4.32-14.9l-3.6-.86C350.35,206.52,350.65,194.43,364.14,195.27Z" style="fill:#263238"></path><path d="M365.64,216.42a6.92,6.92,0,0,1-2.86,4.45c-2,1.38-3.8-.23-3.89-2.54-.08-2.07.86-5.28,3.19-5.73a3.11,3.11,0,0,1,3.56,3.82" style="fill:#b55b52"></path><path d="M359.73,221.34a1.58,1.58,0,1,0,1.15-1.9A1.58,1.58,0,0,0,359.73,221.34Z" style="fill:#fff"></path><path d="M382.55,207.67h0c-11.4-1-11.29-12.81-11.28-12.93a.25.25,0,0,1,.26-.26.26.26,0,0,1,.26.27c0,.46-.1,11.39,10.81,12.4a.26.26,0,0,1,0,.52Z" style="fill:#000061"></path><path d="M371.5,198.13h0c-1.36-.13-8.2-.88-8.8-2.56a.94.94,0,0,1,.33-1c2.29-2.25,8.76,2.89,9,3.11a.25.25,0,0,1,0,.36.26.26,0,0,1-.36,0l0,0A.23.23,0,0,1,371.5,198.13Zm-6.92-3.63a1.66,1.66,0,0,0-1.22.43c-.27.26-.21.42-.2.47.36,1,4.83,1.83,7.88,2.16C369.36,196.33,366.44,194.5,364.58,194.5Z" style="fill:#000061"></path><path d="M371.5,197.56a.26.26,0,0,1-.26-.25v0a.24.24,0,0,1-.2-.11c-.79-1.12-4.71-6.77-3.83-8.32a.92.92,0,0,1,1-.42c3.2.25,3.55,8.51,3.57,8.86a.26.26,0,0,1-.25.27Zm-3.45-8.62c-.29,0-.36.12-.39.16-.52.93,1.78,4.85,3.53,7.37-.21-2.63-1-7.36-3-7.53Z" style="fill:#000061"></path><path d="M404.74,306c-6.7,11.77-46.75,10.14-48.95,7.62s6.45-33.27,6.43-40.84v0c-.05-7.53-7.66-16.11-4.86-21.68a24,24,0,0,1,5.28-6.25,68.62,68.62,0,0,1,5.53-4.46l.36-.25,0,0c.35-.26.67-.48.95-.67.66-.46,1.06-.71,1.06-.71a93.17,93.17,0,0,1,13.83-2.14l1.26-.07a32.67,32.67,0,0,1,8.06.45c8.57,1.8,10,9.41,10.3,17.91S411.44,294.24,404.74,306Z" style="fill:#000061"></path><g style="opacity:0.2"><path d="M360.37,314.65l-.49,0c.49-7.31,9.91-47.88,10-48.29l.49.12C370.27,266.85,360.87,307.37,360.37,314.65Z" style="fill:#fff"></path></g><g style="opacity:0.2"><path d="M385.65,236.51s0,.05,0,.08c-.4,1.57-5.64,5.77-10.46,5.61-4.33-.15-6.59-1.54-7-1.83l.36-.25,0,0c.35-.26.67-.48.95-.67a20.94,20.94,0,0,0,7.15.89,11.24,11.24,0,0,0,7.73-3.73h0Z"></path></g><path d="M374.32,257.4c-.7,10.09-8.28,14-12.1,15.39v0c-.05-7.53-7.66-16.11-4.86-21.68a24,24,0,0,1,5.28-6.25C367.84,245.81,374.93,248.74,374.32,257.4Z" style="fill:#b55b52"></path><path d="M370.37,255.16a150.84,150.84,0,0,1-4.29,19,81.07,81.07,0,0,1-3.41,9.57,34.68,34.68,0,0,1-2.7,5.13,17.48,17.48,0,0,1-2.44,3l-.46.42-.54.44a9.19,9.19,0,0,1-1.21.79c-.36.2-.72.38-1.09.56l-.91.35c-.32.13-.59.21-.85.29l-.79.23c-.51.13-1,.23-1.48.34l-1.38.24-1.33.19c-1.74.21-3.41.34-5.07.43-3.3.17-6.52.16-9.72.09-6.41-.15-12.16.11-18.5-.7l-.45-7c6.15-.7,12.36-2.15,18.42-2.9,3-.39,6.05-.81,8.95-1.33,1.45-.25,2.87-.53,4.2-.85l1-.25.91-.27.78-.27.32-.13a1.47,1.47,0,0,0,.25-.12l.17-.1h-.06s-.21.12-.24.15l-.09.06h0a7.28,7.28,0,0,1,.39-.7,28.7,28.7,0,0,0,1.43-3.26c.93-2.52,1.74-5.35,2.49-8.2,1.49-5.71,2.76-11.76,4-17.57Z" style="fill:#b55b52"></path><path d="M294.24,296l9.62-.47H314.2l1.17-6.85s-9.56-.83-12.39,0c0,0-7.2,3.48-8.15,4.72A3.27,3.27,0,0,0,294.24,296Z" style="fill:#b55b52"></path><path d="M369.56,239.57s-.37-2.12.86-2.79,6.39-4.54,8.44-4.79,4.11,4.67,5.52,4.59S373.05,240.64,369.56,239.57Z" style="fill:#000061"></path><path d="M450.27,242.83c6.83,2.9,8.1,7.53,7.23,14.5-2.31,18.52-8.17,63-11.94,69.72-4.79,8.52-71.89,9.4-75.31,1.64s7.22-73.23,13-79.42C388,244.12,430.74,234.51,450.27,242.83Z"></path><g style="opacity:0.6000000000000001"><path d="M450.27,242.83c6.83,2.9,8.1,7.53,7.23,14.5-2.31,18.52-8.17,63-11.94,69.72-4.79,8.52-71.89,9.4-75.31,1.64s7.22-73.23,13-79.42C388,244.12,430.74,234.51,450.27,242.83Z" style="fill:#fff"></path></g><g style="opacity:0.5"><path d="M376.61,327.5l-1-.05c0-.41,2-42,8.4-66.52,3.94-15,10.29-16.54,10.55-16.59l.21,1c-.06,0-6,1.53-9.79,15.88C378.58,285.64,376.62,327.08,376.61,327.5Z" style="fill:#fff"></path></g><path d="M370.89,327.47s-3.79.6-13.32,2.21c-3.18.54-6.29,1.05-9,1.48a11.24,11.24,0,0,0-9.47,11.11h0a11.25,11.25,0,0,0,11.25,11.26h77.24a17.34,17.34,0,0,0,16.82-12.69,44.52,44.52,0,0,0,1.23-13.37Z"></path><g style="opacity:0.5"><path d="M370.89,327.47s-3.79.6-13.32,2.21c-3.18.54-6.29,1.05-9,1.48a11.24,11.24,0,0,0-9.47,11.11h0a11.25,11.25,0,0,0,11.25,11.26h77.24a17.34,17.34,0,0,0,16.82-12.69,44.52,44.52,0,0,0,1.23-13.37Z" style="fill:#fff"></path></g><rect x="405.28" y="354.38" width="5.6" height="79.54"></rect><g style="opacity:0.5"><rect x="405.28" y="354.38" width="5.6" height="79.54" style="fill:#fff"></rect></g><path d="M447.42,435.13h4.48v-2.27a15,15,0,0,0-15-15H413.26v4.48h23.63a10.55,10.55,0,0,1,10.53,10.54Z"></path><g style="opacity:0.6000000000000001"><path d="M447.42,435.13h4.48v-2.27a15,15,0,0,0-15-15H413.26v4.48h23.63a10.55,10.55,0,0,1,10.53,10.54Z" style="fill:#fff"></path></g><circle cx="449.66" cy="439.54" r="7.64" transform="translate(-179.1 446.7) rotate(-45)"></circle><g style="opacity:0.4"><circle cx="449.66" cy="439.54" r="7.64" transform="translate(-179.1 446.7) rotate(-45)" style="fill:#fff"></circle></g><g style="opacity:0.5"><path d="M445.81,439.54a3.85,3.85,0,1,0,3.85-3.85A3.85,3.85,0,0,0,445.81,439.54Z" style="fill:#fff"></path></g><circle cx="408.08" cy="439.54" r="7.64" transform="translate(-65.28 71.23) rotate(-9.24)"></circle><g style="opacity:0.4"><circle cx="408.08" cy="439.54" r="7.64" transform="translate(-65.28 71.23) rotate(-9.24)" style="fill:#fff"></circle></g><g style="opacity:0.5"><circle cx="408.08" cy="439.54" r="3.85" style="fill:#fff"></circle></g><path d="M364.84,435.13h4.48v-2.27a10.55,10.55,0,0,1,10.53-10.54h23.63v-4.48H379.85a15,15,0,0,0-15,15Z"></path><g style="opacity:0.6000000000000001"><path d="M364.84,435.13h4.48v-2.27a10.55,10.55,0,0,1,10.53-10.54h23.63v-4.48H379.85a15,15,0,0,0-15,15Z" style="fill:#fff"></path></g><circle cx="367.08" cy="439.54" r="7.64" transform="translate(-145.24 695.41) rotate(-76.67)"></circle><g style="opacity:0.4"><circle cx="367.08" cy="439.54" r="7.64" transform="translate(-145.24 695.41) rotate(-76.67)" style="fill:#fff"></circle></g><g style="opacity:0.5"><circle cx="367.08" cy="439.54" r="3.85" style="fill:#fff"></circle></g><rect x="402.9" y="413.05" width="10.36" height="15.19"></rect><g style="opacity:0.6000000000000001"><rect x="402.9" y="413.05" width="10.36" height="15.19" style="fill:#fff"></rect></g><rect x="402.9" y="353.53" width="10.36" height="15.19"></rect><g style="opacity:0.6000000000000001"><rect x="402.9" y="353.53" width="10.36" height="15.19" style="fill:#fff"></rect></g><polygon points="357.93 417.83 359.98 428.23 351.5 428.23 346.7 419.03 357.93 417.83" style="fill:#b55b52"></polygon><path d="M360,426.49c.31,2.52-8.08.43-8.94,1.74s-2,5.69-3.29,7.9-8.68,9.31-8.68,9.31h15.74l2.38-3.43.78,3.43h4.35S360.67,428.26,360,426.49Z" style="fill:#263238"></path><polygon points="342.24 422.33 362.32 422.33 361.06 416.16 340.98 416.16 342.24 422.33" style="fill:#263238"></polygon><g style="opacity:0.30000000000000004"><polygon points="342.24 422.33 362.32 422.33 361.06 416.16 340.98 416.16 342.24 422.33" style="fill:#fff"></polygon></g></g></svg>
