<svg width="55" height="50" viewBox="0 0 55 50" fill="none" xmlns="http://www.w3.org/2000/svg">
<path d="M36.56 35.9152C31.999 35.9152 27.438 35.9282 22.878 35.9092C21.8823 35.9044 20.923 35.5343 20.1822 34.869C19.4413 34.2038 18.9705 33.2897 18.859 32.3002C18.7506 31.3371 18.99 30.3669 19.5341 29.5648C20.0782 28.7627 20.8911 28.1816 21.826 27.9262C22.2839 27.8134 22.7545 27.7603 23.226 27.7682C32.1233 27.7596 41.0207 27.7596 49.918 27.7682C52.978 27.7682 54.975 30.2682 54.154 33.0112C53.9011 33.8665 53.3729 34.6143 52.6514 35.1387C51.93 35.6631 51.0556 35.9346 50.164 35.9112C45.63 35.9205 41.0954 35.9219 36.56 35.9152Z" fill="#017DFF"/>
<path d="M17.4269 22.281C12.9649 22.281 8.50294 22.296 4.04094 22.274C3.04434 22.2676 2.08498 21.8945 1.34591 21.2259C0.606848 20.5573 0.139818 19.64 0.0339355 18.649C-0.0725667 17.7116 0.151754 16.7665 0.668125 15.977C1.1845 15.1874 1.96047 14.6031 2.86193 14.325C3.31579 14.1867 3.78747 14.1156 4.26194 14.114C13.0366 14.102 21.8113 14.102 30.5859 14.114C31.5691 14.0729 32.5341 14.3886 33.3028 15.003C34.0715 15.6173 34.5922 16.4889 34.7689 17.457C34.9462 18.3581 34.808 19.2927 34.3775 20.104C33.947 20.9152 33.2505 21.5536 32.4049 21.912C31.8045 22.1481 31.1651 22.2695 30.5199 22.27C26.1519 22.296 21.7889 22.281 17.4269 22.281Z" fill="#05C4FB"/>
<path d="M33.0389 0.459997C36.3779 0.459997 39.7169 0.444986 43.0559 0.464986C44.0384 0.461878 44.9889 0.813676 45.7327 1.45565C46.4765 2.09762 46.9634 2.98658 47.1039 3.95899C47.2452 4.91787 47.038 5.89564 46.5198 6.71474C46.0016 7.53384 45.2069 8.13995 44.2799 8.42299C43.8256 8.55899 43.3541 8.62871 42.8799 8.62999C36.2799 8.64266 29.6769 8.64266 23.0709 8.62999C22.0629 8.66536 21.0772 8.32793 20.3023 7.68223C19.5275 7.03652 19.0178 6.12785 18.8709 5.12999C18.7337 4.19675 18.9272 3.24491 19.4179 2.43934C19.9087 1.63376 20.6657 1.02518 21.5579 0.718999C22.0782 0.552426 22.6215 0.468399 23.1679 0.469991C26.4609 0.446991 29.7499 0.458997 33.0389 0.459997Z" fill="#037DFF"/>
<path d="M20.6589 49.5561C17.3669 49.5561 14.0749 49.5561 10.7829 49.5561C10.2333 49.5845 9.68363 49.5001 9.16786 49.308C8.6521 49.1159 8.18112 48.8203 7.78398 48.4392C7.38683 48.0582 7.07192 47.5999 6.85865 47.0925C6.64537 46.5851 6.53826 46.0394 6.54391 45.4891C6.53957 44.9387 6.64797 44.3932 6.86245 43.8862C7.07693 43.3793 7.39295 42.9216 7.79102 42.5414C8.1891 42.1612 8.6608 41.8666 9.17708 41.6756C9.69335 41.4847 10.2433 41.4015 10.7929 41.4311C17.3769 41.4258 23.9612 41.4258 30.5459 41.4311C31.0954 41.4005 31.6453 41.4818 32.1624 41.6702C32.6794 41.8585 33.1528 42.15 33.5538 42.5269C33.9548 42.9037 34.2751 43.3582 34.4951 43.8626C34.7152 44.367 34.8304 44.9108 34.8339 45.4611C34.8394 46.0179 34.7303 46.5699 34.5135 47.0829C34.2966 47.5958 33.9767 48.0586 33.5734 48.4426C33.1702 48.8267 32.6922 49.1237 32.1694 49.3152C31.6465 49.5068 31.0898 49.5888 30.5339 49.5561C27.2432 49.5601 23.9516 49.5601 20.6589 49.5561Z" fill="#03C3FB"/>
<path d="M6.54297 31.7372C6.55901 30.6651 6.99669 29.6424 7.76124 28.8905C8.52579 28.1387 9.5557 27.7183 10.628 27.7202C11.1655 27.724 11.697 27.8339 12.1919 28.0435C12.6869 28.2531 13.1356 28.5584 13.5123 28.9418C13.8891 29.3252 14.1864 29.7792 14.3873 30.2778C14.5882 30.7764 14.6886 31.3097 14.683 31.8472C14.6791 32.3845 14.569 32.9158 14.3592 33.4105C14.1494 33.9052 13.844 34.3536 13.4604 34.7299C13.0769 35.1062 12.6227 35.403 12.1241 35.6034C11.6255 35.8037 11.0923 35.9036 10.555 35.8972C10.0178 35.8896 9.48741 35.7757 8.99444 35.562C8.50147 35.3484 8.05566 35.0394 7.68271 34.6527C7.30975 34.266 7.01703 33.8093 6.82142 33.3089C6.62581 32.8085 6.53117 32.2743 6.54297 31.7372Z" fill="#FD7237"/>
<path d="M47.129 18.1702C47.1294 18.7074 47.0237 19.2395 46.8181 19.7358C46.6124 20.2321 46.3108 20.6829 45.9305 21.0624C45.5503 21.442 45.0989 21.7427 44.6021 21.9473C44.1054 22.152 43.5732 22.2566 43.036 22.2552C42.4985 22.252 41.967 22.142 41.4724 21.9317C40.9778 21.7213 40.5299 21.4148 40.1548 21.0299C39.7797 20.645 39.4848 20.1894 39.2872 19.6895C39.0896 19.1897 38.9934 18.6556 39.004 18.1182C39.0061 17.0458 39.4334 16.018 40.1923 15.2603C40.9512 14.5026 41.9796 14.0767 43.052 14.0762C43.5893 14.0745 44.1216 14.1793 44.6181 14.3846C45.1147 14.59 45.5656 14.8917 45.9447 15.2725C46.3239 15.6532 46.6238 16.1054 46.827 16.6027C47.0303 17.1001 47.1329 17.6329 47.129 18.1702Z" fill="#FFA83B"/>
<path d="M14.671 4.51609C14.68 5.58721 14.2641 6.61823 13.5143 7.38321C12.7645 8.14818 11.742 8.5847 10.671 8.5971C10.1277 8.60449 9.58842 8.50299 9.085 8.29861C8.58158 8.09423 8.12418 7.79109 7.73981 7.40709C7.35543 7.02308 7.05185 6.56599 6.84698 6.06277C6.64211 5.55955 6.5401 5.02038 6.54696 4.47709C6.55066 3.40566 6.97888 2.37938 7.73782 1.62307C8.49675 0.866765 9.52451 0.442099 10.596 0.442105C11.1325 0.436624 11.6648 0.53824 12.1616 0.741025C12.6584 0.943809 13.1098 1.24368 13.4893 1.62307C13.8688 2.00246 14.1687 2.45375 14.3716 2.95051C14.5745 3.44727 14.6763 3.97952 14.671 4.51609Z" fill="#FD7237"/>
<path d="M47.129 45.4522C47.1341 45.9893 47.0321 46.5221 46.829 47.0193C46.6259 47.5166 46.3258 47.9685 45.9462 48.3485C45.5665 48.7285 45.115 49.029 44.6179 49.2326C44.1208 49.4362 43.5882 49.5387 43.051 49.5342C42.5141 49.5357 41.9822 49.4301 41.4866 49.2235C40.9909 49.0169 40.5415 48.7135 40.1646 48.331C39.7877 47.9485 39.4909 47.4947 39.2917 46.9961C39.0924 46.4974 38.9946 45.9641 39.004 45.4272C39.0045 44.3553 39.4288 43.3271 40.1843 42.5668C40.9397 41.8064 41.9652 41.3756 43.037 41.3682C43.5742 41.3666 44.1063 41.4711 44.603 41.6757C45.0997 41.8803 45.551 42.1809 45.9312 42.5604C46.3114 42.9398 46.6129 43.3906 46.8185 43.8868C47.024 44.3831 47.1296 44.915 47.129 45.4522Z" fill="#FFA83B"/>
</svg>
